<?xml version="1.0" encoding="UTF-8" standalone="no"?><svg xmlns="http://www.w3.org/2000/svg" xmlns:xlink="http://www.w3.org/1999/xlink" contentScriptType="application/ecmascript" contentStyleType="text/css" height="941px" preserveAspectRatio="none" style="width:641px;height:941px;" version="1.1" viewBox="0 0 641 941" width="641px" zoomAndPan="magnify"><defs><filter height="300%" id="fs3yhp84v5jch" width="300%" x="-1" y="-1"><feGaussianBlur result="blurOut" stdDeviation="2.0"/><feColorMatrix in="blurOut" result="blurOut2" type="matrix" values="0 0 0 0 0 0 0 0 0 0 0 0 0 0 0 0 0 0 .4 0"/><feOffset dx="4.0" dy="4.0" in="blurOut2" result="blurOut3"/><feBlend in="SourceGraphic" in2="blurOut3" mode="normal"/></filter></defs><g><line style="stroke: #A80036; stroke-width: 1.0; stroke-dasharray: 5.0,5.0;" x1="49" x2="49" y1="86.4883" y2="853.5645"/><line style="stroke: #A80036; stroke-width: 1.0; stroke-dasharray: 5.0,5.0;" x1="323" x2="323" y1="86.4883" y2="853.5645"/><text fill="#000000" font-family="sans-serif" font-size="14" lengthAdjust="spacingAndGlyphs" textLength="77" x="8" y="83.5352">Publisher 1</text><ellipse cx="49.5" cy="13" fill="#FEFECE" filter="url(#fs3yhp84v5jch)" rx="8" ry="8" style="stroke: #A80036; stroke-width: 2.0;"/><path d="M49.5,21 L49.5,48 M36.5,29 L62.5,29 M49.5,48 L36.5,63 M49.5,48 L62.5,63 " fill="none" filter="url(#fs3yhp84v5jch)" style="stroke: #A80036; stroke-width: 2.0;"/><text fill="#000000" font-family="sans-serif" font-size="14" lengthAdjust="spacingAndGlyphs" textLength="77" x="8" y="866.0996">Publisher 1</text><ellipse cx="49.5" cy="879.0527" fill="#FEFECE" filter="url(#fs3yhp84v5jch)" rx="8" ry="8" style="stroke: #A80036; stroke-width: 2.0;"/><path d="M49.5,887.0527 L49.5,914.0527 M36.5,895.0527 L62.5,895.0527 M49.5,914.0527 L36.5,929.0527 M49.5,914.0527 L62.5,929.0527 " fill="none" filter="url(#fs3yhp84v5jch)" style="stroke: #A80036; stroke-width: 2.0;"/><text fill="#000000" font-family="sans-serif" font-size="14" lengthAdjust="spacingAndGlyphs" textLength="77" x="282" y="83.5352">Publisher 2</text><ellipse cx="323.5" cy="13" fill="#FEFECE" filter="url(#fs3yhp84v5jch)" rx="8" ry="8" style="stroke: #A80036; stroke-width: 2.0;"/><path d="M323.5,21 L323.5,48 M310.5,29 L336.5,29 M323.5,48 L310.5,63 M323.5,48 L336.5,63 " fill="none" filter="url(#fs3yhp84v5jch)" style="stroke: #A80036; stroke-width: 2.0;"/><text fill="#000000" font-family="sans-serif" font-size="14" lengthAdjust="spacingAndGlyphs" textLength="77" x="282" y="866.0996">Publisher 2</text><ellipse cx="323.5" cy="879.0527" fill="#FEFECE" filter="url(#fs3yhp84v5jch)" rx="8" ry="8" style="stroke: #A80036; stroke-width: 2.0;"/><path d="M323.5,887.0527 L323.5,914.0527 M310.5,895.0527 L336.5,895.0527 M323.5,914.0527 L310.5,929.0527 M323.5,914.0527 L336.5,929.0527 " fill="none" filter="url(#fs3yhp84v5jch)" style="stroke: #A80036; stroke-width: 2.0;"/><rect fill="#EEEEEE" filter="url(#fs3yhp84v5jch)" height="3" style="stroke: #EEEEEE; stroke-width: 1.0;" width="626.5" x="3" y="117.1436"/><line style="stroke: #000000; stroke-width: 1.0;" x1="3" x2="629.5" y1="117.1436" y2="117.1436"/><line style="stroke: #000000; stroke-width: 1.0;" x1="3" x2="629.5" y1="120.1436" y2="120.1436"/><rect fill="#EEEEEE" filter="url(#fs3yhp84v5jch)" height="23.3105" style="stroke: #000000; stroke-width: 2.0;" width="69" x="281.75" y="106.4883"/><text fill="#000000" font-family="sans-serif" font-size="13" font-weight="bold" lengthAdjust="spacingAndGlyphs" textLength="51" x="287.75" y="123.0566">Provide</text><line style="stroke: #A80036; stroke-width: 1.0;" x1="49.5" x2="91.5" y1="176.4199" y2="176.4199"/><line style="stroke: #A80036; stroke-width: 1.0;" x1="91.5" x2="91.5" y1="176.4199" y2="189.4199"/><line style="stroke: #A80036; stroke-width: 1.0;" x1="50.5" x2="91.5" y1="189.4199" y2="189.4199"/><polygon fill="#A80036" points="60.5,185.4199,50.5,189.4199,60.5,193.4199,56.5,189.4199" style="stroke: #A80036; stroke-width: 1.0;"/><text fill="#000000" font-family="sans-serif" font-size="13" font-weight="bold" lengthAdjust="spacingAndGlyphs" textLength="59" x="56.5" y="156.3672">on_link()</text><text fill="#000000" font-family="sans-serif" font-size="13" lengthAdjust="spacingAndGlyphs" textLength="78" x="56.5" y="171.6777">Subscribe to</text><text fill="#000000" font-family="monospace" font-size="13" lengthAdjust="spacingAndGlyphs" textLength="80" x="138.5" y="171.354">PROVIDE[/]</text><polygon fill="#A80036" points="311.5,214.5527,321.5,218.5527,311.5,222.5527,315.5,218.5527" style="stroke: #A80036; stroke-width: 1.0;"/><line style="stroke: #A80036; stroke-width: 1.0; stroke-dasharray: 2.0,2.0;" x1="49.5" x2="317.5" y1="218.5527" y2="218.5527"/><text fill="#000000" font-family="monospace" font-size="13" lengthAdjust="spacingAndGlyphs" textLength="160" x="56.5" y="213.4868">PROVIDE[&lt;namespace&gt;]</text><line style="stroke: #A80036; stroke-width: 1.0;" x1="323.5" x2="365.5" y1="263.1738" y2="263.1738"/><line style="stroke: #A80036; stroke-width: 1.0;" x1="365.5" x2="365.5" y1="263.1738" y2="276.1738"/><line style="stroke: #A80036; stroke-width: 1.0;" x1="324.5" x2="365.5" y1="276.1738" y2="276.1738"/><polygon fill="#A80036" points="334.5,272.1738,324.5,276.1738,334.5,280.1738,330.5,276.1738" style="stroke: #A80036; stroke-width: 1.0;"/><text fill="#000000" font-family="sans-serif" font-size="13" font-weight="bold" lengthAdjust="spacingAndGlyphs" textLength="86" x="330.5" y="243.1211">on_provide()</text><text fill="#000000" font-family="sans-serif" font-size="13" lengthAdjust="spacingAndGlyphs" textLength="78" x="330.5" y="258.4316">Subscribe to</text><text fill="#000000" font-family="monospace" font-size="13" lengthAdjust="spacingAndGlyphs" textLength="176" x="412.5" y="258.1079">SUBSCRIBE[&lt;namespace&gt;]</text><polygon fill="#A80036" points="60.5,301.3066,50.5,305.3066,60.5,309.3066,56.5,305.3066" style="stroke: #A80036; stroke-width: 1.0;"/><line style="stroke: #A80036; stroke-width: 1.0; stroke-dasharray: 2.0,2.0;" x1="54.5" x2="322.5" y1="305.3066" y2="305.3066"/><text fill="#000000" font-family="monospace" font-size="13" lengthAdjust="spacingAndGlyphs" textLength="176" x="66.5" y="300.2407">SUBSCRIBE[&lt;namespace&gt;]</text><line style="stroke: #A80036; stroke-width: 1.0;" x1="49.5" x2="91.5" y1="349.9277" y2="349.9277"/><line style="stroke: #A80036; stroke-width: 1.0;" x1="91.5" x2="91.5" y1="349.9277" y2="362.9277"/><line style="stroke: #A80036; stroke-width: 1.0;" x1="50.5" x2="91.5" y1="362.9277" y2="362.9277"/><polygon fill="#A80036" points="60.5,358.9277,50.5,362.9277,60.5,366.9277,56.5,362.9277" style="stroke: #A80036; stroke-width: 1.0;"/><text fill="#000000" font-family="sans-serif" font-size="13" font-weight="bold" lengthAdjust="spacingAndGlyphs" textLength="100" x="56.5" y="329.875">on_subscribe()</text><text fill="#000000" font-family="sans-serif" font-size="13" lengthAdjust="spacingAndGlyphs" textLength="78" x="56.5" y="345.1855">Subscribe to</text><text fill="#000000" font-family="monospace" font-size="13" lengthAdjust="spacingAndGlyphs" textLength="144" x="138.5" y="344.8618">EVENT[&lt;namespace&gt;]</text><polygon fill="#A80036" points="311.5,388.0605,321.5,392.0605,311.5,396.0605,315.5,392.0605" style="stroke: #A80036; stroke-width: 1.0;"/><line style="stroke: #A80036; stroke-width: 1.0; stroke-dasharray: 2.0,2.0;" x1="49.5" x2="317.5" y1="392.0605" y2="392.0605"/><text fill="#000000" font-family="monospace" font-size="13" lengthAdjust="spacingAndGlyphs" textLength="136" x="56.5" y="386.9946">EVENT[&lt;namespace]</text><rect fill="#EEEEEE" filter="url(#fs3yhp84v5jch)" height="3" style="stroke: #EEEEEE; stroke-width: 1.0;" width="626.5" x="3" y="420.7158"/><line style="stroke: #000000; stroke-width: 1.0;" x1="3" x2="629.5" y1="420.7158" y2="420.7158"/><line style="stroke: #000000; stroke-width: 1.0;" x1="3" x2="629.5" y1="423.7158" y2="423.7158"/><rect fill="#EEEEEE" filter="url(#fs3yhp84v5jch)" height="23.3105" style="stroke: #000000; stroke-width: 2.0;" width="67" x="282.75" y="410.0605"/><text fill="#000000" font-family="sans-serif" font-size="13" font-weight="bold" lengthAdjust="spacingAndGlyphs" textLength="49" x="288.75" y="426.6289">Revoke</text><line style="stroke: #A80036; stroke-width: 1.0;" x1="49.5" x2="91.5" y1="479.9922" y2="479.9922"/><line style="stroke: #A80036; stroke-width: 1.0;" x1="91.5" x2="91.5" y1="479.9922" y2="492.9922"/><line style="stroke: #A80036; stroke-width: 1.0;" x1="50.5" x2="91.5" y1="492.9922" y2="492.9922"/><polygon fill="#A80036" points="60.5,488.9922,50.5,492.9922,60.5,496.9922,56.5,492.9922" style="stroke: #A80036; stroke-width: 1.0;"/><text fill="#000000" font-family="sans-serif" font-size="13" font-weight="bold" lengthAdjust="spacingAndGlyphs" textLength="59" x="56.5" y="459.9395">on_link()</text><text fill="#000000" font-family="sans-serif" font-size="13" lengthAdjust="spacingAndGlyphs" textLength="78" x="56.5" y="475.25">Subscribe to</text><text fill="#000000" font-family="monospace" font-size="13" lengthAdjust="spacingAndGlyphs" textLength="72" x="138.5" y="474.9263">REVOKE[/]</text><line style="stroke: #A80036; stroke-width: 1.0; stroke-dasharray: 2.0,2.0;" x1="49.5" x2="91.5" y1="522.125" y2="522.125"/><line style="stroke: #A80036; stroke-width: 1.0; stroke-dasharray: 2.0,2.0;" x1="91.5" x2="91.5" y1="522.125" y2="535.125"/><line style="stroke: #A80036; stroke-width: 1.0; stroke-dasharray: 2.0,2.0;" x1="50.5" x2="91.5" y1="535.125" y2="535.125"/><polygon fill="#A80036" points="60.5,531.125,50.5,535.125,60.5,539.125,56.5,535.125" style="stroke: #A80036; stroke-width: 1.0;"/><text fill="#000000" font-family="monospace" font-size="13" lengthAdjust="spacingAndGlyphs" textLength="152" x="56.5" y="517.0591">REVOKE[&lt;namespace&gt;]</text><line style="stroke: #A80036; stroke-width: 1.0;" x1="49.5" x2="91.5" y1="564.4355" y2="564.4355"/><line style="stroke: #A80036; stroke-width: 1.0;" x1="91.5" x2="91.5" y1="564.4355" y2="577.4355"/><line style="stroke: #A80036; stroke-width: 1.0;" x1="50.5" x2="91.5" y1="577.4355" y2="577.4355"/><polygon fill="#A80036" points="60.5,573.4355,50.5,577.4355,60.5,581.4355,56.5,577.4355" style="stroke: #A80036; stroke-width: 1.0;"/><text fill="#000000" font-family="sans-serif" font-size="13" lengthAdjust="spacingAndGlyphs" textLength="97" x="56.5" y="559.6934">Unsubscribe all</text><text fill="#000000" font-family="monospace" font-size="13" lengthAdjust="spacingAndGlyphs" textLength="144" x="157.5" y="559.3696">EVENT[&lt;namespace&gt;]</text><line style="stroke: #A80036; stroke-width: 1.0;" x1="49.5" x2="91.5" y1="622.0566" y2="622.0566"/><line style="stroke: #A80036; stroke-width: 1.0;" x1="91.5" x2="91.5" y1="622.0566" y2="635.0566"/><line style="stroke: #A80036; stroke-width: 1.0;" x1="50.5" x2="91.5" y1="635.0566" y2="635.0566"/><polygon fill="#A80036" points="60.5,631.0566,50.5,635.0566,60.5,639.0566,56.5,635.0566" style="stroke: #A80036; stroke-width: 1.0;"/><text fill="#000000" font-family="sans-serif" font-size="13" font-weight="bold" lengthAdjust="spacingAndGlyphs" textLength="86" x="56.5" y="602.0039">on_provide()</text><text fill="#000000" font-family="sans-serif" font-size="13" lengthAdjust="spacingAndGlyphs" textLength="78" x="56.5" y="617.3145">Subscribe to</text><text fill="#000000" font-family="monospace" font-size="13" lengthAdjust="spacingAndGlyphs" textLength="152" x="138.5" y="616.9907">REVOKE[&lt;namespace&gt;]</text><polygon fill="#A80036" points="311.5,660.1895,321.5,664.1895,311.5,668.1895,315.5,664.1895" style="stroke: #A80036; stroke-width: 1.0;"/><line style="stroke: #A80036; stroke-width: 1.0; stroke-dasharray: 2.0,2.0;" x1="49.5" x2="317.5" y1="664.1895" y2="664.1895"/><text fill="#000000" font-family="monospace" font-size="13" lengthAdjust="spacingAndGlyphs" textLength="152" x="56.5" y="659.1235">REVOKE[&lt;namespace&gt;]</text><line style="stroke: #A80036; stroke-width: 1.0;" x1="323.5" x2="365.5" y1="693.5" y2="693.5"/><line style="stroke: #A80036; stroke-width: 1.0;" x1="365.5" x2="365.5" y1="693.5" y2="706.5"/><line style="stroke: #A80036; stroke-width: 1.0;" x1="324.5" x2="365.5" y1="706.5" y2="706.5"/><polygon fill="#A80036" points="334.5,702.5,324.5,706.5,334.5,710.5,330.5,706.5" style="stroke: #A80036; stroke-width: 1.0;"/><text fill="#000000" font-family="sans-serif" font-size="13" lengthAdjust="spacingAndGlyphs" textLength="112" x="330.5" y="688.7578">Unsubscribe from</text><text fill="#000000" font-family="monospace" font-size="13" lengthAdjust="spacingAndGlyphs" textLength="176" x="446.5" y="688.4341">SUBSCRIBE[&lt;namespace&gt;]</text><line style="stroke: #A80036; stroke-width: 1.0;" x1="323.5" x2="365.5" y1="751.1211" y2="751.1211"/><line style="stroke: #A80036; stroke-width: 1.0;" x1="365.5" x2="365.5" y1="751.1211" y2="764.1211"/><line style="stroke: #A80036; stroke-width: 1.0;" x1="324.5" x2="365.5" y1="764.1211" y2="764.1211"/><polygon fill="#A80036" points="334.5,760.1211,324.5,764.1211,334.5,768.1211,330.5,764.1211" style="stroke: #A80036; stroke-width: 1.0;"/><text fill="#000000" font-family="sans-serif" font-size="13" font-weight="bold" lengthAdjust="spacingAndGlyphs" textLength="100" x="330.5" y="731.0684">on_subscribe()</text><text fill="#000000" font-family="sans-serif" font-size="13" lengthAdjust="spacingAndGlyphs" textLength="78" x="330.5" y="746.3789">Subscribe to</text><text fill="#000000" font-family="monospace" font-size="13" lengthAdjust="spacingAndGlyphs" textLength="192" x="412.5" y="746.0552">UNSUBSCRIBE[&lt;namespace&gt;]</text><polygon fill="#A80036" points="311.5,789.2539,321.5,793.2539,311.5,797.2539,315.5,793.2539" style="stroke: #A80036; stroke-width: 1.0;"/><line style="stroke: #A80036; stroke-width: 1.0; stroke-dasharray: 2.0,2.0;" x1="49.5" x2="317.5" y1="793.2539" y2="793.2539"/><text fill="#000000" font-family="monospace" font-size="13" lengthAdjust="spacingAndGlyphs" textLength="192" x="56.5" y="788.188">UNSUBSCRIBE[&lt;namespace&gt;]</text><line style="stroke: #A80036; stroke-width: 1.0;" x1="49.5" x2="91.5" y1="822.5645" y2="822.5645"/><line style="stroke: #A80036; stroke-width: 1.0;" x1="91.5" x2="91.5" y1="822.5645" y2="835.5645"/><line style="stroke: #A80036; stroke-width: 1.0;" x1="50.5" x2="91.5" y1="835.5645" y2="835.5645"/><polygon fill="#A80036" points="60.5,831.5645,50.5,835.5645,60.5,839.5645,56.5,835.5645" style="stroke: #A80036; stroke-width: 1.0;"/><text fill="#000000" font-family="sans-serif" font-size="13" lengthAdjust="spacingAndGlyphs" textLength="112" x="56.5" y="817.8223">Unsubscribe from</text><text fill="#000000" font-family="monospace" font-size="13" lengthAdjust="spacingAndGlyphs" textLength="144" x="172.5" y="817.4985">EVENT[&lt;namespace&gt;]</text><!--
@startuml
actor "Publisher 1" as pub
actor "Publisher 2" as new

== Provide ==
pub -> pub : <b>on_link()</b>\nSubscribe to ""PROVIDE[/]""
pub - -> new : ""PROVIDE[<namespace>]""

new -> new : <b>on_provide()</b>\nSubscribe to ""SUBSCRIBE[<namespace>]""
new - -> pub : ""SUBSCRIBE[<namespace>]""

pub -> pub : <b>on_subscribe()</b>\nSubscribe to ""EVENT[<namespace>]""
pub - -> new : ""EVENT[<namespace]""

== Revoke ==
pub -> pub : <b>on_link()</b>\nSubscribe to ""REVOKE[/]""
pub - -> pub : ""REVOKE[<namespace>]""
pub -> pub : Unsubscribe all ""EVENT[<namespace>]""

pub -> pub : <b>on_provide()</b>\nSubscribe to ""REVOKE[<namespace>]""
pub - -> new : ""REVOKE[<namespace>]""
new -> new : Unsubscribe from ""SUBSCRIBE[<namespace>]""

new -> new : <b>on_subscribe()</b>\nSubscribe to ""UNSUBSCRIBE[<namespace>]""
pub - -> new : ""UNSUBSCRIBE[<namespace>]""
pub -> pub : Unsubscribe from ""EVENT[<namespace>]""
@enduml

PlantUML version 1.2019.08(Sat Jul 13 20:25:14 BST 2019)
(GPL source distribution)
Java Runtime: OpenJDK Runtime Environment
JVM: OpenJDK 64-Bit Server VM
Java Version: 11.0.6+10-LTS
Operating System: Mac OS X
OS Version: 10.15.2
Default Encoding: UTF-8
Language: en
Country: GB
--></g></svg>